<svg xmlns="http://www.w3.org/2000/svg" viewBox="0 0 32 32" width="24" height="24" style="border-color: rgba(0,0,0,0);border-width: bpx;border-style: undefined" filter="none">
    
    <g>
    <path d="M2.667 12h4v16h-4c-0.736 0-1.333-0.597-1.333-1.333v0-13.333c0-0.736 0.597-1.333 1.333-1.333v0zM9.724 10.276l8.533-8.533c0.121-0.121 0.288-0.196 0.472-0.196 0.151 0 0.29 0.050 0.402 0.135l-0.002-0.001 1.137 0.853c0.488 0.369 0.799 0.948 0.799 1.599 0 0.175-0.023 0.346-0.065 0.508l0.003-0.014-1.537 6.040h8.533c1.473 0 2.667 1.194 2.667 2.667v0 2.805c0 0.001 0 0.002 0 0.003 0 0.365-0.073 0.714-0.207 1.031l0.007-0.018-4.127 10.020c-0.205 0.488-0.68 0.825-1.233 0.825-0 0-0 0-0.001 0h-14.44c-0.736 0-1.333-0.597-1.333-1.333v0-15.448c0-0.368 0.149-0.701 0.391-0.943v0z" fill="rgba(255,255,255,1)"></path>
    </g>
  </svg>