<svg xmlns="http://www.w3.org/2000/svg" viewBox="0 0 32 32" width="28" height="28" style="border-color: rgba(187,187,187,1);border-width: 0px;border-style: solid" filter="none">
    
    <g>
    <path d="M4.874 25.576l3.491-1.127 0.685 0.397c2.036 1.18 4.434 1.821 6.95 1.821 6.922 0 12.444-4.832 12.444-10.667s-5.523-10.667-12.444-10.667-12.444 4.832-12.444 10.667c0 2.059 0.683 4.033 1.958 5.739l0.603 0.807-1.242 3.031zM16 28.444c-2.898 0-5.593-0.758-7.841-2.061l-4.559 1.472c-0.082 0.027-0.176 0.043-0.273 0.043-0.122 0-0.237-0.024-0.343-0.069l0.006 0.002c-0.454-0.186-0.672-0.705-0.486-1.16l1.586-3.87c-1.462-1.955-2.311-4.292-2.311-6.803 0-6.873 6.367-12.444 14.222-12.444s14.222 5.572 14.222 12.444c0 6.873-6.367 12.444-14.222 12.444z" fill="rgba(0,0,0.125,70.125,1)"></path><path d="M17.778 16c0 0.982-0.796 1.778-1.778 1.778s-1.778-0.796-1.778-1.778c0-0.982 0.796-1.778 1.778-1.778s1.778 0.796 1.778 1.778z" fill="rgba(0,0,0.125,70.125,1)"></path><path d="M10.667 16c0 0.982-0.796 1.778-1.778 1.778s-1.778-0.796-1.778-1.778c0-0.982 0.796-1.778 1.778-1.778s1.778 0.796 1.778 1.778z" fill="rgba(0,0,0.125,70.125,1)"></path><path d="M24.889 16c0 0.982-0.796 1.778-1.778 1.778s-1.778-0.796-1.778-1.778c0-0.982 0.796-1.778 1.778-1.778s1.778 0.796 1.778 1.778z" fill="rgba(0,0,0.125,70.125,1)"></path>
    </g>
  </svg>