<svg xmlns="http://www.w3.org/2000/svg" viewBox="0 0 1024 1024" width="23" height="23" style="border-color: rgba(187,187,187,1);border-width: 0px;border-style: solid" filter="none">
    
    <g>
    <path d="M265.728 963.584c-14.848 0-29.184-4.608-41.984-13.824-22.016-15.872-33.28-43.008-28.672-69.632l39.936-232.448c0.512-3.072-0.512-6.656-3.072-8.704l-168.96-164.352C43.52 455.68 36.352 427.52 45.056 401.408c8.704-26.112 30.72-44.544 57.856-48.64l233.472-33.792c3.072-0.512 6.144-2.56 7.68-5.632l104.448-211.456c12.288-24.576 36.864-39.936 64-39.936 27.648 0 51.712 15.36 64 39.936L680.96 312.832c1.536 3.072 4.096 5.12 7.68 5.632l233.472 33.792c27.136 4.096 49.152 22.528 57.856 48.64 8.704 26.112 1.536 54.272-17.92 73.216l-168.96 164.352c-2.56 2.048-3.584 5.632-3.072 8.704l39.936 232.448c4.608 27.136-6.144 53.76-28.672 69.632-22.016 15.872-51.2 18.432-75.264 5.632L517.12 845.312c-3.072-1.536-6.656-1.536-9.216 0l-208.384 109.568c-10.752 5.632-22.528 8.704-33.792 8.704z m246.784-840.192c-2.56 0-6.656 0.512-9.216 5.632L398.848 339.968c-10.24 20.992-30.72 35.84-53.76 38.912l-233.472 33.792c-5.12 1.024-7.168 4.608-8.192 6.656-0.512 2.048-1.536 6.656 2.56 10.24l168.96 164.352c16.896 16.384 24.576 39.936 20.48 63.488L256 890.368c-1.024 5.12 2.048 8.192 4.096 9.728 2.048 1.536 5.632 3.072 10.752 0.512l208.384-109.568c20.992-10.752 45.568-10.752 66.56 0l208.384 109.568c4.608 2.56 8.704 0.512 10.752-0.512 2.048-1.536 5.12-4.608 4.096-9.728l-39.936-232.448c-4.096-23.04 3.584-46.592 20.48-63.488l168.96-164.352c4.096-3.584 3.072-8.192 2.56-10.24-0.512-2.048-2.56-6.144-8.192-6.656l-233.472-33.792c-23.04-3.584-43.52-17.92-53.76-38.912l-104.448-211.456c-2.048-5.12-6.656-5.632-8.704-5.632z" fill="rgba(255,255,255,1)" p-id="1371" stroke="none"></path>
    </g>
  </svg>