<?xml version="1.0" standalone="no"?><!DOCTYPE svg PUBLIC "-//W3C//DTD SVG 1.1//EN" "http://www.w3.org/Graphics/SVG/1.1/DTD/svg11.dtd"><svg t="1662730392062" class="icon" viewBox="0 0 1024 1024" version="1.1" xmlns="http://www.w3.org/2000/svg" p-id="5690" xmlns:xlink="http://www.w3.org/1999/xlink" width="16" height="16"><path d="M752.630964 535.931039c0.065492 0 0.154519 0.041956 0.222057 0.041956 11.381212 0 20.614503-9.229199 20.614503-20.591991 0-11.360745-9.234315-20.590967-20.593014-20.614503L530.656407 494.7665 530.656407 272.66096c0-0.042979 0.024559-0.064468 0.024559-0.109494 0-11.384281-9.233292-20.615527-20.615527-20.615527-11.359722 0-20.593014 9.231245-20.593014 20.615527l0 222.214011L267.258415 494.765477c-11.362792 0-20.591991 9.230222-20.591991 20.615527 0 11.360745 9.229199 20.591991 20.591991 20.591991 0.089028 0 0.13303-0.041956 0.222057-0.041956l221.994 0 0 222.233454c0 11.363815 9.233292 20.593014 20.593014 20.593014 11.382235 0 20.615527-9.229199 20.615527-20.593014 0-0.044002-0.024559-0.065492-0.024559-0.109494L530.658454 535.931039 752.630964 535.931039zM941.58343 513.627057c0-238.325967-193.192024-431.514921-431.515944-431.514921-238.324944 0-431.514921 193.189977-431.514921 431.514921 0 238.325967 193.188954 431.515944 431.514921 431.515944 97.838306 0 187.422623-33.265638 259.806187-88.140433 2.971681-3.373841 4.924149-7.655354 4.924149-12.493545 0-10.562567-8.56405-19.128663-19.127639-19.128663-5.478781 0-10.359952 2.153036-13.84431 5.858428l-0.246617 0c-64.773236 47.665603-144.502092 76.18003-231.090169 76.18003-215.802998 0-390.773008-174.971034-390.773008-390.771985 0-215.826534 174.97001-390.775055 390.773008-390.775055 215.82551 0 390.774031 174.948521 390.774031 390.775055 0 65.925479-15.467273 127.971603-44.314275 182.449355l0 0.330528c-0.531096 1.797949-1.107217 3.595898-1.107217 5.548366 0 10.540054 8.563026 19.128663 19.128663 19.128663 8.232498 0 15.110139-5.282307 17.796318-12.583596l0 0.135076C923.497517 652.294256 941.58343 585.080435 941.58343 513.627057z" p-id="5691" fill="#dbdbdb"></path></svg>