<svg xmlns="http://www.w3.org/2000/svg" viewBox="0 0 1024 1024" width="30" height="30" style="border-color: rgba(0,0,0,1);border-width: 0px;border-style: solid" filter="none">
    
    <g>
    <path d="M512.12 99C283.41 99 98 284.41 98 513.12s185.41 414.11 414.11 414.11 414.11-185.41 414.11-414.11S740.83 99 512.12 99z m247.57 661.68c-32.17 32.17-69.62 57.43-111.31 75.06-43.12 18.24-88.97 27.49-136.26 27.49s-93.14-9.25-136.26-27.49c-41.68-17.63-79.13-42.88-111.31-75.06-32.17-32.17-57.43-69.62-75.06-111.31C171.25 606.25 162 560.41 162 513.12s9.25-93.14 27.49-136.26c17.63-41.68 42.88-79.13 75.06-111.31 32.17-32.17 69.62-57.43 111.31-75.06C418.98 172.25 464.83 163 512.12 163s93.14 9.25 136.26 27.49c41.68 17.63 79.13 42.88 111.31 75.06 32.17 32.17 57.43 69.62 75.06 111.31 18.24 43.12 27.49 88.97 27.49 136.26s-9.25 93.14-27.49 136.26c-17.64 41.68-42.89 79.13-75.06 111.3z" fill="rgba(0,0,0,1)" p-id="4473" stroke="none"></path><path d="M614.65 322.84c-34.94 0-68.03 13.36-93.17 37.62-3.14 3.03-6.12 6.2-8.93 9.48-2.81-3.28-5.78-6.45-8.93-9.48-25.14-24.26-58.22-37.62-93.17-37.62-73.99 0-134.18 60.19-134.18 134.18 0 84.51 39.19 161.03 113.34 221.3 54.32 44.15 108.49 64.14 110.77 64.97l11.41 4.15 11.29-4.46c2.29-0.9 56.67-22.65 111.29-67.5 74.87-61.46 114.44-137.01 114.44-218.47 0.01-73.97-60.18-134.17-134.16-134.17z m-19.59 302.12c-33.25 27.56-67.09 45.34-84.16 53.43-39.84-17.84-170.63-86.69-170.63-221.37 0-38.7 31.48-70.18 70.18-70.18 63.54 0 100.21 56.31 101.64 94.14 1.43-37.83 43.23-94.14 102.55-94.14 38.7 0 70.18 31.48 70.18 70.18 0 62.08-30.2 118.58-89.76 167.94z" fill="rgba(0,0,0,1)" p-id="4474" stroke="none"></path>
    </g>
  </svg>