<svg xmlns="http://www.w3.org/2000/svg" viewBox="0 0 1024 1024" width="28" height="28" style="border-color: rgba(187,187,187,1);border-width: 0px;border-style: solid" filter="none">
    
    <g>
    <path d="M933.269 479.03c14.36 0 26-11.642 26-26.002V261.296c0-67.572-54.973-122.546-122.545-122.546H491.698c-67.572 0-122.546 54.974-122.546 122.546v10.852H247.057c-32.384 0-62.537 14.521-82.728 39.84l-92.546 116.05c-20.381 25.558-31.605 57.634-31.605 90.322v250.075h70.229c2.961 62.838 55.006 113.05 118.563 113.05s115.603-50.211 118.564-113.05h255.768c2.962 62.838 55.007 113.05 118.564 113.05 63.578 0 115.635-50.244 118.566-113.11 65.863-1.968 118.838-56.154 118.838-122.485v-36.854c0-14.36-11.641-26.001-26.001-26.001s-26.002 11.641-26.002 26.001v36.854c0 38.898-31.645 70.544-70.543 70.544h-5.582c-18.09-42.488-60.26-72.352-109.276-72.352s-91.186 29.864-109.276 72.352H421.154V261.296c0-38.898 31.646-70.544 70.544-70.544h345.026c38.898 0 70.543 31.646 70.543 70.544v191.732c0 14.36 11.64 26.001 26.002 26.001z m-704.3 350.453c-36.777 0-66.698-29.922-66.698-66.7s29.921-66.7 66.699-66.7 66.699 29.921 66.699 66.7-29.92 66.7-66.7 66.7z m109.278-113.05c-18.09-42.488-60.26-72.352-109.276-72.352-49.015 0-91.186 29.864-109.276 72.352H92.18V518.36c0-20.954 7.195-41.516 20.26-57.899l92.546-116.05c10.267-12.875 25.602-20.26 42.07-20.26h122.096v392.282h-30.905z m383.619-20.348c36.777 0 66.699 29.92 66.699 66.699s-29.92 66.7-66.7 66.7-66.698-29.922-66.698-66.7 29.92-66.7 66.699-66.7zM303.583 337.718c-14.36 0-26.001 11.64-26.001 26v100.614H176.968c-14.36 0-26.002 11.641-26.002 26.002s11.641 26 26.002 26h152.616V363.72c0-14.36-11.64-26.001-26-26.001z" p-id="5480" fill="rgba(44.114999999999995,44.114999999999995,44.114999999999995,1)" stroke="none"></path>
    </g>
  </svg>